# xmcd CD database file
#
# Track frame offsets:
#	180
#	20527
#	32509
#	57816
#	72368
#	84828
#	103444
#	114708
#	130031
#	139745
#	157508
#	175297
#	185511
#	195829
#	211513
#
# Disc length: 3057 seconds
#
# Revision: 0
# Processed by: cddbd v1.5.1PL2 Copyright (c) Steve Scherf et al.
# Submitted via: CDex 1.51
#
DISCID=bc0bef0f
DTITLE=MIke Esposito - Let it Slide
DYEAR=1995
DGENRE=Blues
TTITLE0=Ghostriders in the Sky
TTITLE1=Baby, Please Don't Go
TTITLE2=St. James Infirmary
TTITLE3=Nickel is a Nickel Blues
TTITLE4=Spanish Thang
TTITLE5=Hey Joe
TTITLE6=Lucky Dog Blues
TTITLE7=I Know You Rider
TTITLE8=Wild Turkey Woods
TTITLE9=Boogie Woogie
TTITLE10=Talkin' Train
TTITLE11=My Baby Left Me Here
TTITLE12=Irrational National
TTITLE13=Cigarettes and Silhouettes
TTITLE14=Once Loved a Woman
EXTD=YEAR: 1995
EXTT0=
EXTT1=
EXTT2=
EXTT3=
EXTT4=
EXTT5=
EXTT6=
EXTT7=
EXTT8=
EXTT9=
EXTT10=
EXTT11=
EXTT12=
EXTT13=
EXTT14=
PLAYORDER=
